STARTFONT 2.1
COMMENT  
COMMENT  WARNING:  This bdf file was generated from a pcf file using
COMMENT  pcftobdf.  The resulting font is subject to the same copyright,
COMMENT  license, and trademark restrictions as the original font.  The
COMMENT  authors and distributors of fstobdf disclaim all liability for
COMMENT  misuse of the program or its output.
COMMENT  
FONT --Kapl-Screen-R-Normal--15-150-72-72-M--iso8859-1
SIZE 15 72 72
FONTBOUNDINGBOX 9 16 0 -5

STARTPROPERTIES 20
FONTNAME_REGISTRY ""
FAMILY_NAME "Kapl"
FOUNDRY ""
WEIGHT_NAME "Screen"
SLANT "R"
SETWIDTH_NAME "Normal"
ADD_STYLE_NAME ""
PIXEL_SIZE 15
POINT_SIZE 150
RESOLUTION_X 72
RESOLUTION_Y 72
SPACING "M"
AVERAGE_WIDTH 80
CHARSET_REGISTRY "ISO8859"
CHARSET_ENCODING "1"
CHARSET_COLLECTIONS "ASCII ISO8859-1"
FULL_NAME "Kapl"
DEFAULT_CHAR 0
FONT_ASCENT 11
FONT_DESCENT 5
ENDPROPERTIES


CHARS 201
STARTCHAR C020
ENCODING 16
SWIDTH 645 0
DWIDTH 9 0
BBX 9 16 0 -5
BITMAP
0000
0000
0000
0000
0000
0000
0000
1f80
1f80
1800
1800
1800
1800
1800
1800
1800
ENDCHAR
STARTCHAR C021
ENCODING 17
SWIDTH 645 0
DWIDTH 9 0
BBX 9 16 0 -5
BITMAP
0000
0000
0000
0000
0000
0000
0000
ff80
ff80
1800
1800
1800
1800
1800
1800
1800
ENDCHAR
STARTCHAR C022
ENCODING 18
SWIDTH 645 0
DWIDTH 9 0
BBX 9 16 0 -5
BITMAP
0000
0000
0000
0000
0000
0000
0000
f800
f800
1800
1800
1800
1800
1800
1800
1800
ENDCHAR
STARTCHAR C023
ENCODING 19
SWIDTH 645 0
DWIDTH 9 0
BBX 9 16 0 -5
BITMAP
1800
1800
1800
1800
1800
1800
1800
1f80
1f80
1800
1800
1800
1800
1800
1800
1800
ENDCHAR
STARTCHAR C024
ENCODING 20
SWIDTH 645 0
DWIDTH 9 0
BBX 9 16 0 -5
BITMAP
1800
1800
1800
1800
1800
1800
1800
ff80
ff80
1800
1800
1800
1800
1800
1800
1800
ENDCHAR
STARTCHAR C025
ENCODING 21
SWIDTH 645 0
DWIDTH 9 0
BBX 9 16 0 -5
BITMAP
1800
1800
1800
1800
1800
1800
1800
f800
f800
1800
1800
1800
1800
1800
1800
1800
ENDCHAR
STARTCHAR C026
ENCODING 22
SWIDTH 645 0
DWIDTH 9 0
BBX 9 16 0 -5
BITMAP
1800
1800
1800
1800
1800
1800
1800
1f80
1f80
0000
0000
0000
0000
0000
0000
0000
ENDCHAR
STARTCHAR C027
ENCODING 23
SWIDTH 645 0
DWIDTH 9 0
BBX 9 16 0 -5
BITMAP
1800
1800
1800
1800
1800
1800
1800
ff80
ff80
0000
0000
0000
0000
0000
0000
0000
ENDCHAR
STARTCHAR C030
ENCODING 24
SWIDTH 645 0
DWIDTH 9 0
BBX 9 16 0 -5
BITMAP
1800
1800
1800
1800
1800
1800
1800
f800
f800
0000
0000
0000
0000
0000
0000
0000
ENDCHAR
STARTCHAR C031
ENCODING 25
SWIDTH 645 0
DWIDTH 9 0
BBX 9 16 0 -5
BITMAP
1800
1800
1800
1800
1800
1800
1800
1800
1800
1800
1800
1800
1800
1800
1800
1800
ENDCHAR
STARTCHAR C032
ENCODING 26
SWIDTH 645 0
DWIDTH 9 0
BBX 9 16 0 -5
BITMAP
0000
0000
0000
0000
0000
0000
0000
ff80
ff80
0000
0000
0000
0000
0000
0000
0000
ENDCHAR
STARTCHAR C040
ENCODING 32
SWIDTH 645 0
DWIDTH 9 0
BBX 9 16 0 -5
BITMAP
0000
0000
0000
0000
0000
0000
0000
0000
0000
0000
0000
0000
0000
0000
0000
0000
ENDCHAR
STARTCHAR C041
ENCODING 33
SWIDTH 645 0
DWIDTH 9 0
BBX 9 16 0 -5
BITMAP
0000
0000
1800
1800
1800
1800
1800
1800
1800
0000
1800
1800
0000
0000
0000
0000
ENDCHAR
STARTCHAR C042
ENCODING 34
SWIDTH 645 0
DWIDTH 9 0
BBX 9 16 0 -5
BITMAP
0000
0000
3600
3600
3600
3600
0000
0000
0000
0000
0000
0000
0000
0000
0000
0000
ENDCHAR
STARTCHAR C043
ENCODING 35
SWIDTH 645 0
DWIDTH 9 0
BBX 9 16 0 -5
BITMAP
0000
0000
1b00
1b00
1b00
7f80
3600
3600
ff00
6c00
6c00
6c00
0000
0000
0000
0000
ENDCHAR
STARTCHAR C044
ENCODING 36
SWIDTH 645 0
DWIDTH 9 0
BBX 9 16 0 -5
BITMAP
0000
0800
3e00
6b00
6b00
6b00
3800
0e00
6b00
6b00
6b00
3e00
0800
0000
0000
0000
ENDCHAR
STARTCHAR C045
ENCODING 37
SWIDTH 645 0
DWIDTH 9 0
BBX 9 16 0 -5
BITMAP
0000
0000
7600
9600
9c00
ec00
1800
1800
3700
3900
6900
6e00
0000
0000
0000
0000
ENDCHAR
STARTCHAR C046
ENCODING 38
SWIDTH 645 0
DWIDTH 9 0
BBX 9 16 0 -5
BITMAP
0000
0000
3800
6c00
6c00
3800
3000
7b00
de00
cc00
dc00
7700
0000
0000
0000
0000
ENDCHAR
STARTCHAR C047
ENCODING 39
SWIDTH 645 0
DWIDTH 9 0
BBX 9 16 0 -5
BITMAP
0000
0000
0c00
0c00
1800
3000
0000
0000
0000
0000
0000
0000
0000
0000
0000
0000
ENDCHAR
STARTCHAR C050
ENCODING 40
SWIDTH 645 0
DWIDTH 9 0
BBX 9 16 0 -5
BITMAP
0000
0600
0c00
1800
1800
3000
3000
3000
3000
3000
1800
1800
0c00
0600
0000
0000
ENDCHAR
STARTCHAR C051
ENCODING 41
SWIDTH 645 0
DWIDTH 9 0
BBX 9 16 0 -5
BITMAP
0000
3000
1800
0c00
0c00
0600
0600
0600
0600
0600
0c00
0c00
1800
3000
0000
0000
ENDCHAR
STARTCHAR C052
ENCODING 42
SWIDTH 645 0
DWIDTH 9 0
BBX 9 16 0 -5
BITMAP
0000
0000
0000
1800
5a00
7e00
3c00
7e00
5a00
1800
0000
0000
0000
0000
0000
0000
ENDCHAR
STARTCHAR C053
ENCODING 43
SWIDTH 645 0
DWIDTH 9 0
BBX 9 16 0 -5
BITMAP
0000
0000
0000
0000
1800
1800
1800
ff00
ff00
1800
1800
1800
0000
0000
0000
0000
ENDCHAR
STARTCHAR C054
ENCODING 44
SWIDTH 645 0
DWIDTH 9 0
BBX 9 16 0 -5
BITMAP
0000
0000
0000
0000
0000
0000
0000
0000
0000
0000
1800
1800
0800
1000
2000
0000
ENDCHAR
STARTCHAR C055
ENCODING 45
SWIDTH 645 0
DWIDTH 9 0
BBX 9 16 0 -5
BITMAP
0000
0000
0000
0000
0000
0000
0000
7f00
7f00
0000
0000
0000
0000
0000
0000
0000
ENDCHAR
STARTCHAR C056
ENCODING 46
SWIDTH 645 0
DWIDTH 9 0
BBX 9 16 0 -5
BITMAP
0000
0000
0000
0000
0000
0000
0000
0000
0000
0000
1800
1800
0000
0000
0000
0000
ENDCHAR
STARTCHAR C057
ENCODING 47
SWIDTH 645 0
DWIDTH 9 0
BBX 9 16 0 -5
BITMAP
0000
0300
0600
0600
0c00
0c00
1800
1800
3000
3000
6000
6000
c000
0000
0000
0000
ENDCHAR
STARTCHAR C060
ENCODING 48
SWIDTH 645 0
DWIDTH 9 0
BBX 9 16 0 -5
BITMAP
0000
0000
3e00
6300
6700
6700
6b00
6b00
7300
7300
6300
3e00
0000
0000
0000
0000
ENDCHAR
STARTCHAR C061
ENCODING 49
SWIDTH 645 0
DWIDTH 9 0
BBX 9 16 0 -5
BITMAP
0000
0000
0c00
1c00
3c00
0c00
0c00
0c00
0c00
0c00
0c00
3f00
0000
0000
0000
0000
ENDCHAR
STARTCHAR C062
ENCODING 50
SWIDTH 645 0
DWIDTH 9 0
BBX 9 16 0 -5
BITMAP
0000
0000
3e00
6300
6300
0300
0600
0c00
1800
3000
6100
7f00
0000
0000
0000
0000
ENDCHAR
STARTCHAR C063
ENCODING 51
SWIDTH 645 0
DWIDTH 9 0
BBX 9 16 0 -5
BITMAP
0000
0000
3e00
6300
6300
0300
1e00
0700
0300
6300
6300
3e00
0000
0000
0000
0000
ENDCHAR
STARTCHAR C064
ENCODING 52
SWIDTH 645 0
DWIDTH 9 0
BBX 9 16 0 -5
BITMAP
0000
0000
0200
0600
0e00
1e00
3600
6600
c600
ff00
0600
0600
0000
0000
0000
0000
ENDCHAR
STARTCHAR C065
ENCODING 53
SWIDTH 645 0
DWIDTH 9 0
BBX 9 16 0 -5
BITMAP
0000
0000
7f00
6000
6000
7e00
0300
0300
0300
6300
6300
3e00
0000
0000
0000
0000
ENDCHAR
STARTCHAR C066
ENCODING 54
SWIDTH 645 0
DWIDTH 9 0
BBX 9 16 0 -5
BITMAP
0000
0000
3e00
6300
6000
6000
7e00
6300
6300
6300
6300
3e00
0000
0000
0000
0000
ENDCHAR
STARTCHAR C067
ENCODING 55
SWIDTH 645 0
DWIDTH 9 0
BBX 9 16 0 -5
BITMAP
0000
0000
7f00
4300
4300
0600
0600
0c00
0c00
1800
1800
1800
0000
0000
0000
0000
ENDCHAR
STARTCHAR C070
ENCODING 56
SWIDTH 645 0
DWIDTH 9 0
BBX 9 16 0 -5
BITMAP
0000
0000
3e00
6300
6300
6300
3e00
6300
6300
6300
6300
3e00
0000
0000
0000
0000
ENDCHAR
STARTCHAR C071
ENCODING 57
SWIDTH 645 0
DWIDTH 9 0
BBX 9 16 0 -5
BITMAP
0000
0000
3e00
6300
6300
6300
6300
3f00
0300
0300
6300
3e00
0000
0000
0000
0000
ENDCHAR
STARTCHAR C072
ENCODING 58
SWIDTH 645 0
DWIDTH 9 0
BBX 9 16 0 -5
BITMAP
0000
0000
0000
0000
0000
1800
1800
0000
0000
0000
1800
1800
0000
0000
0000
0000
ENDCHAR
STARTCHAR C073
ENCODING 59
SWIDTH 645 0
DWIDTH 9 0
BBX 9 16 0 -5
BITMAP
0000
0000
0000
0000
0000
1800
1800
0000
0000
0000
1800
1800
0800
1000
2000
0000
ENDCHAR
STARTCHAR C074
ENCODING 60
SWIDTH 645 0
DWIDTH 9 0
BBX 9 16 0 -5
BITMAP
0000
0300
0600
0c00
1800
3000
6000
3000
1800
0c00
0600
0300
0000
0000
0000
0000
ENDCHAR
STARTCHAR C075
ENCODING 61
SWIDTH 645 0
DWIDTH 9 0
BBX 9 16 0 -5
BITMAP
0000
0000
0000
0000
0000
7f00
7f00
0000
0000
7f00
7f00
0000
0000
0000
0000
0000
ENDCHAR
STARTCHAR C076
ENCODING 62
SWIDTH 645 0
DWIDTH 9 0
BBX 9 16 0 -5
BITMAP
0000
6000
3000
1800
0c00
0600
0300
0600
0c00
1800
3000
6000
0000
0000
0000
0000
ENDCHAR
STARTCHAR C077
ENCODING 63
SWIDTH 645 0
DWIDTH 9 0
BBX 9 16 0 -5
BITMAP
0000
0000
3e00
6300
6300
0300
0600
0c00
0c00
0000
0c00
0c00
0000
0000
0000
0000
ENDCHAR
STARTCHAR C100
ENCODING 64
SWIDTH 645 0
DWIDTH 9 0
BBX 9 16 0 -5
BITMAP
0000
0000
1c00
3600
6300
6f00
6b00
6b00
6e00
6000
3300
1e00
0000
0000
0000
0000
ENDCHAR
STARTCHAR C101
ENCODING 65
SWIDTH 645 0
DWIDTH 9 0
BBX 9 16 0 -5
BITMAP
0000
0000
0800
1c00
1c00
3600
3600
3600
6300
7f00
6300
6300
0000
0000
0000
0000
ENDCHAR
STARTCHAR C102
ENCODING 66
SWIDTH 645 0
DWIDTH 9 0
BBX 9 16 0 -5
BITMAP
0000
0000
7c00
6600
6600
6600
7c00
6600
6300
6300
6300
7e00
0000
0000
0000
0000
ENDCHAR
STARTCHAR C103
ENCODING 67
SWIDTH 645 0
DWIDTH 9 0
BBX 9 16 0 -5
BITMAP
0000
0000
3e00
6300
6300
6000
6000
6000
6000
6300
6300
3e00
0000
0000
0000
0000
ENDCHAR
STARTCHAR C104
ENCODING 68
SWIDTH 645 0
DWIDTH 9 0
BBX 9 16 0 -5
BITMAP
0000
0000
7c00
6600
6300
6300
6300
6300
6300
6300
6600
7c00
0000
0000
0000
0000
ENDCHAR
STARTCHAR C105
ENCODING 69
SWIDTH 645 0
DWIDTH 9 0
BBX 9 16 0 -5
BITMAP
0000
0000
7f00
6000
6000
6000
7e00
6000
6000
6000
6000
7f00
0000
0000
0000
0000
ENDCHAR
STARTCHAR C106
ENCODING 70
SWIDTH 645 0
DWIDTH 9 0
BBX 9 16 0 -5
BITMAP
0000
0000
7f00
6000
6000
6000
7e00
6000
6000
6000
6000
6000
0000
0000
0000
0000
ENDCHAR
STARTCHAR C107
ENCODING 71
SWIDTH 645 0
DWIDTH 9 0
BBX 9 16 0 -5
BITMAP
0000
0000
3e00
6300
6300
6000
6000
6700
6300
6300
6700
3d00
0000
0000
0000
0000
ENDCHAR
STARTCHAR C110
ENCODING 72
SWIDTH 645 0
DWIDTH 9 0
BBX 9 16 0 -5
BITMAP
0000
0000
6300
6300
6300
6300
7f00
6300
6300
6300
6300
6300
0000
0000
0000
0000
ENDCHAR
STARTCHAR C111
ENCODING 73
SWIDTH 645 0
DWIDTH 9 0
BBX 9 16 0 -5
BITMAP
0000
0000
7e00
1800
1800
1800
1800
1800
1800
1800
1800
7e00
0000
0000
0000
0000
ENDCHAR
STARTCHAR C112
ENCODING 74
SWIDTH 645 0
DWIDTH 9 0
BBX 9 16 0 -5
BITMAP
0000
0000
1f00
0600
0600
0600
0600
0600
0600
6600
6600
3c00
0000
0000
0000
0000
ENDCHAR
STARTCHAR C113
ENCODING 75
SWIDTH 645 0
DWIDTH 9 0
BBX 9 16 0 -5
BITMAP
0000
0000
6300
6600
6c00
7800
7c00
6c00
6600
6600
6300
6300
0000
0000
0000
0000
ENDCHAR
STARTCHAR C114
ENCODING 76
SWIDTH 645 0
DWIDTH 9 0
BBX 9 16 0 -5
BITMAP
0000
0000
6000
6000
6000
6000
6000
6000
6000
6000
6000
7f00
0000
0000
0000
0000
ENDCHAR
STARTCHAR C115
ENCODING 77
SWIDTH 645 0
DWIDTH 9 0
BBX 9 16 0 -5
BITMAP
0000
0000
c300
c300
e700
e700
ff00
db00
db00
c300
c300
c300
0000
0000
0000
0000
ENDCHAR
STARTCHAR C116
ENCODING 78
SWIDTH 645 0
DWIDTH 9 0
BBX 9 16 0 -5
BITMAP
0000
0000
6300
6300
7300
7300
7b00
6b00
6f00
6700
6700
6300
0000
0000
0000
0000
ENDCHAR
STARTCHAR C117
ENCODING 79
SWIDTH 645 0
DWIDTH 9 0
BBX 9 16 0 -5
BITMAP
0000
0000
3e00
6300
6300
6300
6300
6300
6300
6300
6300
3e00
0000
0000
0000
0000
ENDCHAR
STARTCHAR C120
ENCODING 80
SWIDTH 645 0
DWIDTH 9 0
BBX 9 16 0 -5
BITMAP
0000
0000
7e00
6300
6300
6300
6300
7e00
6000
6000
6000
6000
0000
0000
0000
0000
ENDCHAR
STARTCHAR C121
ENCODING 81
SWIDTH 645 0
DWIDTH 9 0
BBX 9 16 0 -5
BITMAP
0000
0000
3e00
6300
6300
6300
6300
6300
6300
6300
6300
3e00
1800
0c00
0700
0000
ENDCHAR
STARTCHAR C122
ENCODING 82
SWIDTH 645 0
DWIDTH 9 0
BBX 9 16 0 -5
BITMAP
0000
0000
7e00
6300
6300
6300
7e00
6c00
6600
6600
6300
6300
0000
0000
0000
0000
ENDCHAR
STARTCHAR C123
ENCODING 83
SWIDTH 645 0
DWIDTH 9 0
BBX 9 16 0 -5
BITMAP
0000
0000
3e00
6300
6300
3000
1c00
0600
0300
6300
6300
3e00
0000
0000
0000
0000
ENDCHAR
STARTCHAR C124
ENCODING 84
SWIDTH 645 0
DWIDTH 9 0
BBX 9 16 0 -5
BITMAP
0000
0000
ff00
1800
1800
1800
1800
1800
1800
1800
1800
1800
0000
0000
0000
0000
ENDCHAR
STARTCHAR C125
ENCODING 85
SWIDTH 645 0
DWIDTH 9 0
BBX 9 16 0 -5
BITMAP
0000
0000
6300
6300
6300
6300
6300
6300
6300
6300
6300
3e00
0000
0000
0000
0000
ENDCHAR
STARTCHAR C126
ENCODING 86
SWIDTH 645 0
DWIDTH 9 0
BBX 9 16 0 -5
BITMAP
0000
0000
6300
6300
6300
3600
3600
3600
1c00
1c00
0800
0800
0000
0000
0000
0000
ENDCHAR
STARTCHAR C127
ENCODING 87
SWIDTH 645 0
DWIDTH 9 0
BBX 9 16 0 -5
BITMAP
0000
0000
c180
c980
c980
dd80
5d00
7700
7700
3600
2200
2200
0000
0000
0000
0000
ENDCHAR
STARTCHAR C130
ENCODING 88
SWIDTH 645 0
DWIDTH 9 0
BBX 9 16 0 -5
BITMAP
0000
0000
6300
6300
3600
3600
1c00
1c00
3600
3600
6300
6300
0000
0000
0000
0000
ENDCHAR
STARTCHAR C131
ENCODING 89
SWIDTH 645 0
DWIDTH 9 0
BBX 9 16 0 -5
BITMAP
0000
0000
c300
c300
6600
6600
3c00
1800
1800
1800
1800
1800
0000
0000
0000
0000
ENDCHAR
STARTCHAR C132
ENCODING 90
SWIDTH 645 0
DWIDTH 9 0
BBX 9 16 0 -5
BITMAP
0000
0000
7f00
0300
0300
0600
0c00
1800
3000
6000
6000
7f00
0000
0000
0000
0000
ENDCHAR
STARTCHAR C133
ENCODING 91
SWIDTH 645 0
DWIDTH 9 0
BBX 9 16 0 -5
BITMAP
0000
3e00
3000
3000
3000
3000
3000
3000
3000
3000
3000
3000
3000
3e00
0000
0000
ENDCHAR
STARTCHAR C134
ENCODING 92
SWIDTH 645 0
DWIDTH 9 0
BBX 9 16 0 -5
BITMAP
0000
c000
6000
6000
3000
3000
1800
1800
0c00
0c00
0600
0600
0300
0000
0000
0000
ENDCHAR
STARTCHAR C135
ENCODING 93
SWIDTH 645 0
DWIDTH 9 0
BBX 9 16 0 -5
BITMAP
0000
3e00
0600
0600
0600
0600
0600
0600
0600
0600
0600
0600
0600
3e00
0000
0000
ENDCHAR
STARTCHAR C136
ENCODING 94
SWIDTH 645 0
DWIDTH 9 0
BBX 9 16 0 -5
BITMAP
0000
0000
0800
1c00
3600
6300
0000
0000
0000
0000
0000
0000
0000
0000
0000
0000
ENDCHAR
STARTCHAR C137
ENCODING 95
SWIDTH 645 0
DWIDTH 9 0
BBX 9 16 0 -5
BITMAP
0000
0000
0000
0000
0000
0000
0000
0000
0000
0000
0000
0000
ff00
ff00
0000
0000
ENDCHAR
STARTCHAR C140
ENCODING 96
SWIDTH 645 0
DWIDTH 9 0
BBX 9 16 0 -5
BITMAP
0000
0000
3000
3000
1800
0c00
0000
0000
0000
0000
0000
0000
0000
0000
0000
0000
ENDCHAR
STARTCHAR C141
ENCODING 97
SWIDTH 645 0
DWIDTH 9 0
BBX 9 16 0 -5
BITMAP
0000
0000
0000
0000
0000
3c00
6600
0600
3e00
6600
6600
3f00
0000
0000
0000
0000
ENDCHAR
STARTCHAR C142
ENCODING 98
SWIDTH 645 0
DWIDTH 9 0
BBX 9 16 0 -5
BITMAP
0000
0000
6000
6000
6000
6e00
7300
6300
6300
6300
7300
6e00
0000
0000
0000
0000
ENDCHAR
STARTCHAR C143
ENCODING 99
SWIDTH 645 0
DWIDTH 9 0
BBX 9 16 0 -5
BITMAP
0000
0000
0000
0000
0000
3e00
6300
6000
6000
6000
6300
3e00
0000
0000
0000
0000
ENDCHAR
STARTCHAR C144
ENCODING 100
SWIDTH 645 0
DWIDTH 9 0
BBX 9 16 0 -5
BITMAP
0000
0000
0300
0300
0300
3b00
6700
6300
6300
6300
6700
3b00
0000
0000
0000
0000
ENDCHAR
STARTCHAR C145
ENCODING 101
SWIDTH 645 0
DWIDTH 9 0
BBX 9 16 0 -5
BITMAP
0000
0000
0000
0000
0000
3e00
6300
6300
7f00
6000
6300
3e00
0000
0000
0000
0000
ENDCHAR
STARTCHAR C146
ENCODING 102
SWIDTH 645 0
DWIDTH 9 0
BBX 9 16 0 -5
BITMAP
0000
0000
0e00
1b00
1800
1800
7e00
1800
1800
1800
1800
1800
0000
0000
0000
0000
ENDCHAR
STARTCHAR C147
ENCODING 103
SWIDTH 645 0
DWIDTH 9 0
BBX 9 16 0 -5
BITMAP
0000
0000
0000
0000
0000
3b00
6700
6300
6300
6300
6700
3b00
0300
6300
3e00
0000
ENDCHAR
STARTCHAR C150
ENCODING 104
SWIDTH 645 0
DWIDTH 9 0
BBX 9 16 0 -5
BITMAP
0000
0000
6000
6000
6000
6e00
7300
6300
6300
6300
6300
6300
0000
0000
0000
0000
ENDCHAR
STARTCHAR C151
ENCODING 105
SWIDTH 645 0
DWIDTH 9 0
BBX 9 16 0 -5
BITMAP
0000
0000
0c00
0c00
0000
3c00
0c00
0c00
0c00
0c00
0c00
0c00
0000
0000
0000
0000
ENDCHAR
STARTCHAR C152
ENCODING 106
SWIDTH 645 0
DWIDTH 9 0
BBX 9 16 0 -5
BITMAP
0000
0000
0600
0600
0000
1e00
0600
0600
0600
0600
0600
0600
0600
6600
3c00
0000
ENDCHAR
STARTCHAR C153
ENCODING 107
SWIDTH 645 0
DWIDTH 9 0
BBX 9 16 0 -5
BITMAP
0000
0000
6000
6000
6000
6600
6c00
7800
7800
6c00
6600
6300
0000
0000
0000
0000
ENDCHAR
STARTCHAR C154
ENCODING 108
SWIDTH 645 0
DWIDTH 9 0
BBX 9 16 0 -5
BITMAP
0000
0000
3c00
0c00
0c00
0c00
0c00
0c00
0c00
0c00
0c00
0c00
0000
0000
0000
0000
ENDCHAR
STARTCHAR C155
ENCODING 109
SWIDTH 645 0
DWIDTH 9 0
BBX 9 16 0 -5
BITMAP
0000
0000
0000
0000
0000
b600
db00
db00
db00
db00
db00
db00
0000
0000
0000
0000
ENDCHAR
STARTCHAR C156
ENCODING 110
SWIDTH 645 0
DWIDTH 9 0
BBX 9 16 0 -5
BITMAP
0000
0000
0000
0000
0000
5e00
7300
6300
6300
6300
6300
6300
0000
0000
0000
0000
ENDCHAR
STARTCHAR C157
ENCODING 111
SWIDTH 645 0
DWIDTH 9 0
BBX 9 16 0 -5
BITMAP
0000
0000
0000
0000
0000
3e00
6300
6300
6300
6300
6300
3e00
0000
0000
0000
0000
ENDCHAR
STARTCHAR C160
ENCODING 112
SWIDTH 645 0
DWIDTH 9 0
BBX 9 16 0 -5
BITMAP
0000
0000
0000
0000
0000
6e00
7300
6300
6300
6300
7300
6e00
6000
6000
6000
6000
ENDCHAR
STARTCHAR C161
ENCODING 113
SWIDTH 645 0
DWIDTH 9 0
BBX 9 16 0 -5
BITMAP
0000
0000
0000
0000
0000
3b00
6700
6300
6300
6300
6700
3b00
0300
0300
0300
0300
ENDCHAR
STARTCHAR C162
ENCODING 114
SWIDTH 645 0
DWIDTH 9 0
BBX 9 16 0 -5
BITMAP
0000
0000
0000
0000
0000
6e00
7b00
6000
6000
6000
6000
6000
0000
0000
0000
0000
ENDCHAR
STARTCHAR C163
ENCODING 115
SWIDTH 645 0
DWIDTH 9 0
BBX 9 16 0 -5
BITMAP
0000
0000
0000
0000
0000
3e00
6300
6000
3e00
0300
6300
3e00
0000
0000
0000
0000
ENDCHAR
STARTCHAR C164
ENCODING 116
SWIDTH 645 0
DWIDTH 9 0
BBX 9 16 0 -5
BITMAP
0000
0000
1800
1800
1800
7e00
1800
1800
1800
1800
1b00
0e00
0000
0000
0000
0000
ENDCHAR
STARTCHAR C165
ENCODING 117
SWIDTH 645 0
DWIDTH 9 0
BBX 9 16 0 -5
BITMAP
0000
0000
0000
0000
0000
6300
6300
6300
6300
6300
6700
3b00
0000
0000
0000
0000
ENDCHAR
STARTCHAR C166
ENCODING 118
SWIDTH 645 0
DWIDTH 9 0
BBX 9 16 0 -5
BITMAP
0000
0000
0000
0000
0000
6300
6300
3600
3600
1c00
1c00
0800
0000
0000
0000
0000
ENDCHAR
STARTCHAR C167
ENCODING 119
SWIDTH 645 0
DWIDTH 9 0
BBX 9 16 0 -5
BITMAP
0000
0000
0000
0000
0000
c300
c300
db00
db00
db00
db00
7e00
0000
0000
0000
0000
ENDCHAR
STARTCHAR C170
ENCODING 120
SWIDTH 645 0
DWIDTH 9 0
BBX 9 16 0 -5
BITMAP
0000
0000
0000
0000
0000
6600
6600
3c00
1800
3c00
6600
6600
0000
0000
0000
0000
ENDCHAR
STARTCHAR C171
ENCODING 121
SWIDTH 645 0
DWIDTH 9 0
BBX 9 16 0 -5
BITMAP
0000
0000
0000
0000
0000
6300
6300
3300
3600
1600
1c00
0c00
0c00
4800
7800
3000
ENDCHAR
STARTCHAR C172
ENCODING 122
SWIDTH 645 0
DWIDTH 9 0
BBX 9 16 0 -5
BITMAP
0000
0000
0000
0000
0000
7f00
0600
0c00
1800
3000
6000
7f00
0000
0000
0000
0000
ENDCHAR
STARTCHAR C173
ENCODING 123
SWIDTH 645 0
DWIDTH 9 0
BBX 9 16 0 -5
BITMAP
0000
0f00
1800
1800
1800
1800
1800
7000
1800
1800
1800
1800
1800
0f00
0000
0000
ENDCHAR
STARTCHAR C174
ENCODING 124
SWIDTH 645 0
DWIDTH 9 0
BBX 9 16 0 -5
BITMAP
0000
1800
1800
1800
1800
1800
1800
0000
1800
1800
1800
1800
1800
1800
0000
0000
ENDCHAR
STARTCHAR C175
ENCODING 125
SWIDTH 645 0
DWIDTH 9 0
BBX 9 16 0 -5
BITMAP
0000
7800
0c00
0c00
0c00
0c00
0c00
0700
0c00
0c00
0c00
0c00
0c00
7800
0000
0000
ENDCHAR
STARTCHAR C176
ENCODING 126
SWIDTH 645 0
DWIDTH 9 0
BBX 9 16 0 -5
BITMAP
0000
0000
0000
3b00
7f00
6e00
0000
0000
0000
0000
0000
0000
0000
0000
0000
0000
ENDCHAR
STARTCHAR C201
ENCODING 129
SWIDTH 645 0
DWIDTH 9 0
BBX 9 16 0 -5
BITMAP
0000
0000
0800
1c00
1c00
3600
3600
3600
6300
7f00
6300
6300
0000
7f00
7f00
0000
ENDCHAR
STARTCHAR C202
ENCODING 130
SWIDTH 645 0
DWIDTH 9 0
BBX 9 16 0 -5
BITMAP
0000
0000
7c00
6600
6600
6600
7c00
6600
6300
6300
6300
7e00
0000
7f00
7f00
0000
ENDCHAR
STARTCHAR C203
ENCODING 131
SWIDTH 645 0
DWIDTH 9 0
BBX 9 16 0 -5
BITMAP
0000
0000
3e00
6300
6300
6000
6000
6000
6000
6300
6300
3e00
0000
7f00
7f00
0000
ENDCHAR
STARTCHAR C204
ENCODING 132
SWIDTH 645 0
DWIDTH 9 0
BBX 9 16 0 -5
BITMAP
0000
0000
7c00
6600
6300
6300
6300
6300
6300
6300
6600
7c00
0000
7f00
7f00
0000
ENDCHAR
STARTCHAR C205
ENCODING 133
SWIDTH 645 0
DWIDTH 9 0
BBX 9 16 0 -5
BITMAP
0000
0000
7f00
6000
6000
6000
7e00
6000
6000
6000
6000
7f00
0000
7f00
7f00
0000
ENDCHAR
STARTCHAR C206
ENCODING 134
SWIDTH 645 0
DWIDTH 9 0
BBX 9 16 0 -5
BITMAP
0000
0000
7f00
6000
6000
6000
7e00
6000
6000
6000
6000
6000
0000
7f00
7f00
0000
ENDCHAR
STARTCHAR C207
ENCODING 135
SWIDTH 645 0
DWIDTH 9 0
BBX 9 16 0 -5
BITMAP
0000
0000
3e00
6300
6300
6000
6000
6700
6300
6300
6700
3d00
0000
7f00
7f00
0000
ENDCHAR
STARTCHAR C210
ENCODING 136
SWIDTH 645 0
DWIDTH 9 0
BBX 9 16 0 -5
BITMAP
0000
0000
6300
6300
6300
6300
7f00
6300
6300
6300
6300
6300
0000
7f00
7f00
0000
ENDCHAR
STARTCHAR C211
ENCODING 137
SWIDTH 645 0
DWIDTH 9 0
BBX 9 16 0 -5
BITMAP
0000
0000
6300
6300
6300
6300
7f00
6300
6300
6300
6300
6300
0000
7f00
7f00
0000
ENDCHAR
STARTCHAR C212
ENCODING 138
SWIDTH 645 0
DWIDTH 9 0
BBX 9 16 0 -5
BITMAP
0000
0000
7e00
1800
1800
1800
1800
1800
1800
1800
1800
7e00
0000
7f00
7f00
0000
ENDCHAR
STARTCHAR C213
ENCODING 139
SWIDTH 645 0
DWIDTH 9 0
BBX 9 16 0 -5
BITMAP
0000
0000
1f00
0600
0600
0600
0600
0600
0600
6600
6600
3c00
0000
7f00
7f00
0000
ENDCHAR
STARTCHAR C214
ENCODING 140
SWIDTH 645 0
DWIDTH 9 0
BBX 9 16 0 -5
BITMAP
0000
0000
6300
6600
6c00
7800
7c00
6c00
6600
6600
6300
6300
0000
7f00
7f00
0000
ENDCHAR
STARTCHAR C215
ENCODING 141
SWIDTH 645 0
DWIDTH 9 0
BBX 9 16 0 -5
BITMAP
0000
0000
6000
6000
6000
6000
6000
6000
6000
6000
6000
7f00
0000
7f00
7f00
0000
ENDCHAR
STARTCHAR C216
ENCODING 142
SWIDTH 645 0
DWIDTH 9 0
BBX 9 16 0 -5
BITMAP
0000
0000
c300
c300
e700
e700
ff00
db00
db00
c300
c300
c300
0000
ff00
ff00
0000
ENDCHAR
STARTCHAR C217
ENCODING 143
SWIDTH 645 0
DWIDTH 9 0
BBX 9 16 0 -5
BITMAP
0000
0000
6300
6300
7300
7300
7b00
6b00
6f00
6700
6700
6300
0000
7f00
7f00
0000
ENDCHAR
STARTCHAR C220
ENCODING 144
SWIDTH 645 0
DWIDTH 9 0
BBX 9 16 0 -5
BITMAP
0000
0000
3e00
6300
6300
6300
6300
6300
6300
6300
6300
3e00
0000
7f00
7f00
0000
ENDCHAR
STARTCHAR C221
ENCODING 145
SWIDTH 645 0
DWIDTH 9 0
BBX 9 16 0 -5
BITMAP
0000
0000
7e00
6300
6300
6300
6300
7e00
6000
6000
6000
6000
0000
7f00
7f00
0000
ENDCHAR
STARTCHAR C222
ENCODING 146
SWIDTH 645 0
DWIDTH 9 0
BBX 9 16 0 -5
BITMAP
0000
0000
3e00
6300
6300
6300
6300
6300
6300
6300
6300
3e00
1800
6f00
7f00
0000
ENDCHAR
STARTCHAR C223
ENCODING 147
SWIDTH 645 0
DWIDTH 9 0
BBX 9 16 0 -5
BITMAP
0000
0000
7e00
6300
6300
6300
7e00
6c00
6600
6600
6300
6300
0000
7f00
7f00
0000
ENDCHAR
STARTCHAR C224
ENCODING 148
SWIDTH 645 0
DWIDTH 9 0
BBX 9 16 0 -5
BITMAP
0000
0000
3e00
6300
6300
3000
1c00
0600
0300
6300
6300
3e00
0000
7f00
7f00
0000
ENDCHAR
STARTCHAR C225
ENCODING 149
SWIDTH 645 0
DWIDTH 9 0
BBX 9 16 0 -5
BITMAP
0000
0000
ff00
1800
1800
1800
1800
1800
1800
1800
1800
1800
0000
ff00
ff00
0000
ENDCHAR
STARTCHAR C226
ENCODING 150
SWIDTH 645 0
DWIDTH 9 0
BBX 9 16 0 -5
BITMAP
0000
0000
6300
6300
6300
6300
6300
6300
6300
6300
6300
3e00
0000
7f00
7f00
0000
ENDCHAR
STARTCHAR C227
ENCODING 151
SWIDTH 645 0
DWIDTH 9 0
BBX 9 16 0 -5
BITMAP
0000
0000
6300
6300
6300
3600
3600
3600
1c00
1c00
0800
0800
0000
7f00
7f00
0000
ENDCHAR
STARTCHAR C230
ENCODING 152
SWIDTH 645 0
DWIDTH 9 0
BBX 9 16 0 -5
BITMAP
0000
0000
c180
c980
c980
dd80
5d00
7700
7700
3600
2200
2200
0000
ff80
ff80
0000
ENDCHAR
STARTCHAR C231
ENCODING 153
SWIDTH 645 0
DWIDTH 9 0
BBX 9 16 0 -5
BITMAP
0000
0000
6300
6300
3600
3600
1c00
1c00
3600
3600
6300
6300
0000
7f00
7f00
0000
ENDCHAR
STARTCHAR C232
ENCODING 154
SWIDTH 645 0
DWIDTH 9 0
BBX 9 16 0 -5
BITMAP
0000
0000
c300
c300
6600
6600
3c00
1800
1800
1800
1800
1800
0000
ff00
ff00
0000
ENDCHAR
STARTCHAR C233
ENCODING 155
SWIDTH 645 0
DWIDTH 9 0
BBX 9 16 0 -5
BITMAP
0000
0000
7f00
0300
0300
0600
0c00
1800
3000
6000
6000
7f00
0000
7f00
7f00
0000
ENDCHAR
STARTCHAR C240
ENCODING 160
SWIDTH 645 0
DWIDTH 9 0
BBX 9 16 0 -5
BITMAP
0000
0000
3e00
6300
6300
6380
6f00
7b00
e300
6300
6300
3e00
0000
0000
0000
0000
ENDCHAR
STARTCHAR C241
ENCODING 161
SWIDTH 645 0
DWIDTH 9 0
BBX 9 16 0 -5
BITMAP
0000
7700
7700
7700
0000
0000
0000
0000
0000
0000
0000
0000
0000
0000
0000
0000
ENDCHAR
STARTCHAR C242
ENCODING 162
SWIDTH 645 0
DWIDTH 9 0
BBX 9 16 0 -5
BITMAP
0000
0000
3e00
3e00
0000
0000
0000
0000
0000
0000
0000
0000
0000
0000
0000
0000
ENDCHAR
STARTCHAR C244
ENCODING 164
SWIDTH 645 0
DWIDTH 9 0
BBX 9 16 0 -5
BITMAP
0000
0000
0e00
1c00
3000
6000
3000
1c00
0e00
0000
7f00
7f00
0000
0000
0000
0000
ENDCHAR
STARTCHAR C246
ENCODING 166
SWIDTH 645 0
DWIDTH 9 0
BBX 9 16 0 -5
BITMAP
0000
0000
3800
1c00
0600
0300
0600
1c00
3800
0000
7f00
7f00
0000
0000
0000
0000
ENDCHAR
STARTCHAR C250
ENCODING 168
SWIDTH 645 0
DWIDTH 9 0
BBX 9 16 0 -5
BITMAP
0000
0000
0000
0200
0600
7f00
7f00
0c00
1800
7f00
7f00
3000
2000
0000
0000
0000
ENDCHAR
STARTCHAR C251
ENCODING 169
SWIDTH 645 0
DWIDTH 9 0
BBX 9 16 0 -5
BITMAP
0000
0000
0000
0000
0000
c300
6600
3c00
1800
0000
0000
0000
0000
0000
0000
0000
ENDCHAR
STARTCHAR C253
ENCODING 171
SWIDTH 645 0
DWIDTH 9 0
BBX 9 16 0 -5
BITMAP
0000
0000
0000
0000
6180
3300
1e00
0c00
1e00
3300
6180
0000
0000
0000
0000
0000
ENDCHAR
STARTCHAR C254
ENCODING 172
SWIDTH 645 0
DWIDTH 9 0
BBX 9 16 0 -5
BITMAP
0000
0000
0000
0000
0000
0000
7f00
7f00
0000
0000
1800
1800
0800
1000
2000
0000
ENDCHAR
STARTCHAR C255
ENCODING 173
SWIDTH 645 0
DWIDTH 9 0
BBX 9 16 0 -5
BITMAP
0000
7f80
7f80
6180
6d80
6180
7f80
6180
6d80
6180
7f80
7f80
0000
0000
0000
0000
ENDCHAR
STARTCHAR C070
ENCODING 174
SWIDTH 645 0
DWIDTH 9 0
BBX 9 16 0 -5
BITMAP
0000
0000
0000
0000
6600
6600
0000
0000
1800
1800
0000
0000
0000
0000
0000
0000
ENDCHAR
STARTCHAR C257
ENCODING 175
SWIDTH 645 0
DWIDTH 9 0
BBX 9 16 0 -5
BITMAP
0000
0000
0300
0300
0600
0600
0c00
7f00
7f00
1800
3000
3000
6000
0000
0000
0000
ENDCHAR
STARTCHAR C260
ENCODING 176
SWIDTH 645 0
DWIDTH 9 0
BBX 9 16 0 -5
BITMAP
0000
0000
3300
7e00
cc00
0000
1800
3c00
6600
c300
0000
0000
0000
0000
0000
0000
ENDCHAR
STARTCHAR C261
ENCODING 177
SWIDTH 645 0
DWIDTH 9 0
BBX 9 16 0 -5
BITMAP
0000
0000
0c00
0c00
0000
0c00
0c00
0c00
0c00
0c00
0c00
0c00
0000
0000
0000
0000
ENDCHAR
STARTCHAR C263
ENCODING 179
SWIDTH 645 0
DWIDTH 9 0
BBX 9 16 0 -5
BITMAP
0000
0000
1c00
3600
3000
3000
7c00
3000
3000
3100
7f00
fe00
0000
0000
0000
0000
ENDCHAR
STARTCHAR C264
ENCODING 180
SWIDTH 645 0
DWIDTH 9 0
BBX 9 16 0 -5
BITMAP
0000
0000
c300
c300
6600
6600
3c00
ff00
1800
ff00
1800
7e00
0000
0000
0000
0000
ENDCHAR
STARTCHAR C271
ENCODING 185
SWIDTH 645 0
DWIDTH 9 0
BBX 9 16 0 -5
BITMAP
0000
0000
3300
7e00
cc00
0000
c300
6600
3c00
1800
0000
0000
0000
0000
0000
0000
ENDCHAR
STARTCHAR C273
ENCODING 187
SWIDTH 645 0
DWIDTH 9 0
BBX 9 16 0 -5
BITMAP
0000
7f80
7f80
6180
6180
6d80
7380
6d80
6180
6180
7f80
7f80
0000
0000
0000
0000
ENDCHAR
STARTCHAR C274
ENCODING 188
SWIDTH 645 0
DWIDTH 9 0
BBX 9 16 0 -5
BITMAP
0000
7f80
7f80
7180
7980
6980
6d80
6580
6780
6380
7f80
7f80
0000
0000
0000
0000
ENDCHAR
STARTCHAR C275
ENCODING 189
SWIDTH 645 0
DWIDTH 9 0
BBX 9 16 0 -5
BITMAP
0000
0000
0000
7f80
7f80
0000
7f80
7f80
0000
7f80
7f80
0000
0000
0000
0000
0000
ENDCHAR
STARTCHAR C276
ENCODING 190
SWIDTH 645 0
DWIDTH 9 0
BBX 9 16 0 -5
BITMAP
0000
7c00
7c00
6c00
6c00
6c00
6c00
6c00
6c00
6c00
7c00
7c00
0000
0000
0000
0000
ENDCHAR
STARTCHAR C277
ENCODING 191
SWIDTH 645 0
DWIDTH 9 0
BBX 9 16 0 -5
BITMAP
0000
0000
1800
1800
0000
1800
1800
3000
6000
6300
6300
3e00
0000
0000
0000
0000
ENDCHAR
STARTCHAR C301
ENCODING 193
SWIDTH 645 0
DWIDTH 9 0
BBX 9 16 0 -5
BITMAP
0000
0000
0000
0000
0000
0000
3d00
6600
6600
6600
6700
3d80
0000
0000
0000
0000
ENDCHAR
STARTCHAR C302
ENCODING 194
SWIDTH 645 0
DWIDTH 9 0
BBX 9 16 0 -5
BITMAP
0000
0000
0000
0000
0c00
0c00
0c00
0c00
0c00
7f80
7f80
0000
0000
0000
0000
0000
ENDCHAR
STARTCHAR C303
ENCODING 195
SWIDTH 645 0
DWIDTH 9 0
BBX 9 16 0 -5
BITMAP
0000
0000
0000
0000
3e00
7f00
6300
6300
6300
6300
6300
6300
0000
0000
0000
0000
ENDCHAR
STARTCHAR C304
ENCODING 196
SWIDTH 645 0
DWIDTH 9 0
BBX 9 16 0 -5
BITMAP
0000
3000
3000
3000
3000
3000
3000
3000
3000
3000
3e00
3e00
0000
0000
0000
0000
ENDCHAR
STARTCHAR C305
ENCODING 197
SWIDTH 645 0
DWIDTH 9 0
BBX 9 16 0 -5
BITMAP
0000
0000
0000
3e00
7e00
6000
7c00
7c00
6000
7f00
3f00
0000
0000
0000
0000
0000
ENDCHAR
STARTCHAR C307
ENCODING 199
SWIDTH 645 0
DWIDTH 9 0
BBX 9 16 0 -5
BITMAP
0000
0000
ff80
ff80
c180
6300
6300
3600
1c00
1c00
0800
0000
0000
0000
0000
0000
ENDCHAR
STARTCHAR C310
ENCODING 200
SWIDTH 645 0
DWIDTH 9 0
BBX 9 16 0 -5
BITMAP
0000
0000
0000
0800
1c00
1c00
3600
6300
6300
c180
ff80
ff80
0000
0000
0000
0000
ENDCHAR
STARTCHAR C311
ENCODING 201
SWIDTH 645 0
DWIDTH 9 0
BBX 9 16 0 -5
BITMAP
0000
0000
0000
0000
0000
3000
7800
1800
1800
1800
1e00
0c00
0000
0000
0000
0000
ENDCHAR
STARTCHAR C312
ENCODING 202
SWIDTH 645 0
DWIDTH 9 0
BBX 9 16 0 -5
BITMAP
0000
0000
0000
0000
0000
3800
6c00
4400
6c00
3800
0000
0000
0000
0000
0000
0000
ENDCHAR
STARTCHAR C314
ENCODING 204
SWIDTH 645 0
DWIDTH 9 0
BBX 9 16 0 -5
BITMAP
0000
7f80
7f80
6180
6180
6180
6180
6180
6180
6180
7f80
7f80
0000
0000
0000
0000
ENDCHAR
STARTCHAR C315
ENCODING 205
SWIDTH 645 0
DWIDTH 9 0
BBX 9 16 0 -5
BITMAP
0000
1800
1800
1800
1800
1800
1800
1800
1800
1800
1800
0000
0000
0000
0000
0000
ENDCHAR
STARTCHAR C316
ENCODING 206
SWIDTH 645 0
DWIDTH 9 0
BBX 9 16 0 -5
BITMAP
0000
0000
0000
7f80
7f80
0c00
0c00
0c00
0c00
0c00
0c00
0000
0000
0000
0000
0000
ENDCHAR
STARTCHAR C317
ENCODING 207
SWIDTH 645 0
DWIDTH 9 0
BBX 9 16 0 -5
BITMAP
0000
0000
0000
0000
3e00
7f00
6300
6300
6300
7f00
3e00
0000
0000
0000
0000
0000
ENDCHAR
STARTCHAR C322
ENCODING 210
SWIDTH 645 0
DWIDTH 9 0
BBX 9 16 0 -5
BITMAP
0000
0000
0000
0000
1e00
3f00
7300
6300
6300
6f00
6e00
6000
6000
6000
0000
0000
ENDCHAR
STARTCHAR C323
ENCODING 211
SWIDTH 645 0
DWIDTH 9 0
BBX 9 16 0 -5
BITMAP
0000
3e00
3e00
3000
3000
3000
3000
3000
3000
3000
3000
3000
0000
0000
0000
0000
ENDCHAR
STARTCHAR C325
ENCODING 213
SWIDTH 645 0
DWIDTH 9 0
BBX 9 16 0 -5
BITMAP
0000
0000
0c00
0c00
0c00
0c00
0c00
0c00
2d00
3f00
1e00
0c00
0000
0000
0000
0000
ENDCHAR
STARTCHAR C326
ENCODING 214
SWIDTH 645 0
DWIDTH 9 0
BBX 9 16 0 -5
BITMAP
0000
0000
0000
6300
6300
6300
6300
6300
6300
6300
7f00
3e00
0000
0000
0000
0000
ENDCHAR
STARTCHAR C327
ENCODING 215
SWIDTH 645 0
DWIDTH 9 0
BBX 9 16 0 -5
BITMAP
0000
0000
0000
0000
0000
3100
6180
6d80
6d80
6d80
7f80
3f00
0000
0000
0000
0000
ENDCHAR
STARTCHAR C330
ENCODING 216
SWIDTH 645 0
DWIDTH 9 0
BBX 9 16 0 -5
BITMAP
0000
0000
0000
0000
7e00
7f00
0300
0300
0300
7f00
7e00
0000
0000
0000
0000
0000
ENDCHAR
STARTCHAR C331
ENCODING 217
SWIDTH 645 0
DWIDTH 9 0
BBX 9 16 0 -5
BITMAP
0000
0000
0c00
1e00
3f00
2d00
0c00
0c00
0c00
0c00
0c00
0c00
0000
0000
0000
0000
ENDCHAR
STARTCHAR C332
ENCODING 218
SWIDTH 645 0
DWIDTH 9 0
BBX 9 16 0 -5
BITMAP
0000
0000
0000
0000
3f00
7f00
6000
6000
6000
7f00
3f00
0000
0000
0000
0000
0000
ENDCHAR
STARTCHAR C333
ENCODING 219
SWIDTH 645 0
DWIDTH 9 0
BBX 9 16 0 -5
BITMAP
0000
0000
0000
6000
6000
6000
7f00
7f00
6000
6000
6000
0000
0000
0000
0000
0000
ENDCHAR
STARTCHAR C334
ENCODING 220
SWIDTH 645 0
DWIDTH 9 0
BBX 9 16 0 -5
BITMAP
0000
0000
6000
6000
3000
3000
1800
7f00
7f00
0c00
0600
0600
0300
0000
0000
0000
ENDCHAR
STARTCHAR C335
ENCODING 221
SWIDTH 645 0
DWIDTH 9 0
BBX 9 16 0 -5
BITMAP
0000
0000
0000
0300
0300
0300
7f00
7f00
0300
0300
0300
0000
0000
0000
0000
0000
ENDCHAR
STARTCHAR C337
ENCODING 223
SWIDTH 645 0
DWIDTH 9 0
BBX 9 16 0 -5
BITMAP
0000
0000
0000
0c00
0c00
0000
7f80
7f80
0000
0c00
0c00
0000
0000
0000
0000
0000
ENDCHAR
STARTCHAR C340
ENCODING 224
SWIDTH 645 0
DWIDTH 9 0
BBX 9 16 0 -5
BITMAP
0000
0000
0000
7f80
7f80
0c00
0c00
0c00
0c00
7f80
7f80
0000
0000
0000
0000
0000
ENDCHAR
STARTCHAR C341
ENCODING 225
SWIDTH 645 0
DWIDTH 9 0
BBX 9 16 0 -5
BITMAP
0000
0000
0000
3f00
7f80
6180
7f80
7f80
6180
7f80
3f00
0000
0000
0000
0000
0000
ENDCHAR
STARTCHAR C342
ENCODING 226
SWIDTH 645 0
DWIDTH 9 0
BBX 9 16 0 -5
BITMAP
0000
0000
0c00
1e00
2d00
2d00
2d00
1e00
0c00
7f80
7f80
0000
0000
0000
0000
0000
ENDCHAR
STARTCHAR C343
ENCODING 227
SWIDTH 645 0
DWIDTH 9 0
BBX 9 16 0 -5
BITMAP
0000
0000
0000
3e00
7f00
6300
6300
7700
7f00
6300
6300
6300
0000
0000
0000
0000
ENDCHAR
STARTCHAR C345
ENCODING 229
SWIDTH 645 0
DWIDTH 9 0
BBX 9 16 0 -5
BITMAP
0000
0000
3e00
7e00
6000
7c00
7c00
6000
7f00
3f00
0000
7f00
7f00
0000
0000
0000
ENDCHAR
STARTCHAR C346
ENCODING 230
SWIDTH 645 0
DWIDTH 9 0
BBX 9 16 0 -5
BITMAP
0000
1980
3f00
6600
0000
7f80
7f80
2100
3300
1e00
0c00
0000
0000
0000
0000
0000
ENDCHAR
STARTCHAR C347
ENCODING 231
SWIDTH 645 0
DWIDTH 9 0
BBX 9 16 0 -5
BITMAP
0000
0c00
0c00
7f80
4c80
6d80
2d00
3f00
1e00
0c00
0c00
0000
0000
0000
0000
0000
ENDCHAR
STARTCHAR C350
ENCODING 232
SWIDTH 645 0
DWIDTH 9 0
BBX 9 16 0 -5
BITMAP
0000
0c00
0c00
1e00
3f00
2d00
6d80
4c80
7f80
0c00
0c00
0000
0000
0000
0000
0000
ENDCHAR
STARTCHAR C351
ENCODING 233
SWIDTH 645 0
DWIDTH 9 0
BBX 9 16 0 -5
BITMAP
0000
0000
0000
3000
7800
1800
1800
1800
1e00
0c00
0000
7e00
7e00
0000
0000
0000
ENDCHAR
STARTCHAR C352
ENCODING 234
SWIDTH 645 0
DWIDTH 9 0
BBX 9 16 0 -5
BITMAP
0000
0000
6c00
6c00
0000
3800
6c00
4400
6c00
3800
0000
0000
0000
0000
0000
0000
ENDCHAR
STARTCHAR C354
ENCODING 236
SWIDTH 645 0
DWIDTH 9 0
BBX 9 16 0 -5
BITMAP
0000
7f80
7f80
6d80
6d80
6d80
6180
6180
6180
6180
7f80
7f80
0000
0000
0000
0000
ENDCHAR
STARTCHAR C356
ENCODING 238
SWIDTH 645 0
DWIDTH 9 0
BBX 9 16 0 -5
BITMAP
0000
0000
0000
7f80
7f80
0c00
1e00
2d00
2d00
2d00
1e00
0c00
0000
0000
0000
0000
ENDCHAR
STARTCHAR C357
ENCODING 239
SWIDTH 645 0
DWIDTH 9 0
BBX 9 16 0 -5
BITMAP
0000
6600
6600
0000
3c00
7e00
6600
6600
7e00
3c00
0000
0000
0000
0000
0000
0000
ENDCHAR
STARTCHAR C360
ENCODING 240
SWIDTH 645 0
DWIDTH 9 0
BBX 9 16 0 -5
BITMAP
0000
0000
3e00
7f00
c980
eb80
dd80
d580
e380
7f00
3e00
0000
0000
0000
0000
0000
ENDCHAR
STARTCHAR C364
ENCODING 244
SWIDTH 645 0
DWIDTH 9 0
BBX 9 16 0 -5
BITMAP
0000
0000
0000
c000
7e00
7f00
7300
6b00
6700
7f00
3f00
0180
0000
0000
0000
0000
ENDCHAR
STARTCHAR C367
ENCODING 247
SWIDTH 645 0
DWIDTH 9 0
BBX 9 16 0 -5
BITMAP
0000
0000
0c00
0c00
3f00
7f80
6d80
6d80
6d80
7f80
3f00
0c00
0c00
0000
0000
0000
ENDCHAR
STARTCHAR C372
ENCODING 250
SWIDTH 645 0
DWIDTH 9 0
BBX 9 16 0 -5
BITMAP
0000
0000
0000
0c00
3f00
7f80
6d80
6c00
6d80
7f80
3f00
0c00
0000
0000
0000
0000
ENDCHAR
STARTCHAR C373
ENCODING 251
SWIDTH 645 0
DWIDTH 9 0
BBX 9 16 0 -5
BITMAP
0000
0000
0000
0000
3000
6000
ff80
ff80
6000
3000
0000
0000
0000
0000
0000
0000
ENDCHAR
STARTCHAR C374
ENCODING 252
SWIDTH 645 0
DWIDTH 9 0
BBX 9 16 0 -5
BITMAP
0000
0000
0000
0c00
1e00
3300
2100
7f80
7f80
0000
7f80
7f80
0000
0000
0000
0000
ENDCHAR
STARTCHAR C375
ENCODING 253
SWIDTH 645 0
DWIDTH 9 0
BBX 9 16 0 -5
BITMAP
0000
0000
0000
0000
0600
0300
ff80
ff80
0300
0600
0000
0000
0000
0000
0000
0000
ENDCHAR
STARTCHAR C376
ENCODING 254
SWIDTH 645 0
DWIDTH 9 0
BBX 9 16 0 -5
BITMAP
0000
0000
0000
0000
0c00
1e00
3300
6180
3300
1e00
0c00
0000
0000
0000
0000
0000
ENDCHAR
ENDFONT
